<?xml version="1.0" encoding="UTF-8" standalone="no"?>
<!-- Created with Inkscape (http://www.inkscape.org/) -->

<svg
   xmlns:dc="http://purl.org/dc/elements/1.1/"
   xmlns:cc="http://creativecommons.org/ns#"
   xmlns:rdf="http://www.w3.org/1999/02/22-rdf-syntax-ns#"
   xmlns:svg="http://www.w3.org/2000/svg"
   xmlns="http://www.w3.org/2000/svg"
   xmlns:xlink="http://www.w3.org/1999/xlink"
   xmlns:sodipodi="http://sodipodi.sourceforge.net/DTD/sodipodi-0.dtd"
   xmlns:inkscape="http://www.inkscape.org/namespaces/inkscape"
   width="512"
   height="512"
   id="svg2"
   version="1.1"
   inkscape:version="0.48.2 r9819"
   sodipodi:docname="notification_icon.svg"
   inkscape:export-filename="C:\Users\marti_000\Downloads\AndroidWearPreview\samples\LocationTest\icon_resources\notification_icon.png"
   inkscape:export-xdpi="90"
   inkscape:export-ydpi="90">
  <defs
     id="defs4">
    <linearGradient
       id="linearGradient3825">
      <stop
         style="stop-color:#cac8c8;stop-opacity:1;"
         offset="0"
         id="stop3827" />
      <stop
         style="stop-color:#ffffff;stop-opacity:1;"
         offset="1"
         id="stop3829" />
    </linearGradient>
    <linearGradient
       inkscape:collect="always"
       xlink:href="#linearGradient3825"
       id="linearGradient3831"
       x1="190"
       y1="302"
       x2="190"
       y2="102"
       gradientUnits="userSpaceOnUse" />
    <linearGradient
       inkscape:collect="always"
       xlink:href="#linearGradient3825"
       id="linearGradient3889"
       gradientUnits="userSpaceOnUse"
       x1="190"
       y1="302"
       x2="190"
       y2="102" />
    <linearGradient
       inkscape:collect="always"
       xlink:href="#linearGradient3825"
       id="linearGradient3901"
       gradientUnits="userSpaceOnUse"
       x1="190"
       y1="302"
       x2="190"
       y2="102" />
    <linearGradient
       inkscape:collect="always"
       xlink:href="#linearGradient3825"
       id="linearGradient3907"
       gradientUnits="userSpaceOnUse"
       x1="190"
       y1="302"
       x2="190"
       y2="102" />
    <linearGradient
       inkscape:collect="always"
       xlink:href="#linearGradient3825"
       id="linearGradient3920"
       gradientUnits="userSpaceOnUse"
       x1="190"
       y1="302"
       x2="190"
       y2="102" />
    <linearGradient
       inkscape:collect="always"
       xlink:href="#linearGradient3825"
       id="linearGradient3937"
       gradientUnits="userSpaceOnUse"
       x1="190"
       y1="302"
       x2="190"
       y2="102" />
    <linearGradient
       inkscape:collect="always"
       xlink:href="#linearGradient3825"
       id="linearGradient4018"
       gradientUnits="userSpaceOnUse"
       x1="190"
       y1="302"
       x2="190"
       y2="102" />
    <linearGradient
       inkscape:collect="always"
       xlink:href="#linearGradient3825"
       id="linearGradient4109"
       gradientUnits="userSpaceOnUse"
       x1="190"
       y1="302"
       x2="190"
       y2="102" />
  </defs>
  <sodipodi:namedview
     id="base"
     pagecolor="#64ffff"
     bordercolor="#666666"
     borderopacity="1.0"
     inkscape:pageopacity="0"
     inkscape:pageshadow="2"
     inkscape:zoom="0.7"
     inkscape:cx="325.04009"
     inkscape:cy="237.83748"
     inkscape:document-units="px"
     inkscape:current-layer="layer1"
     showgrid="false"
     inkscape:window-width="1600"
     inkscape:window-height="837"
     inkscape:window-x="-8"
     inkscape:window-y="-8"
     inkscape:window-maximized="1">
    <inkscape:grid
       type="xygrid"
       id="grid3755"
       empspacing="5"
       visible="true"
       enabled="true"
       snapvisiblegridlinesonly="true" />
  </sodipodi:namedview>
  <metadata
     id="metadata7">
    <rdf:RDF>
      <cc:Work
         rdf:about="">
        <dc:format>image/svg+xml</dc:format>
        <dc:type
           rdf:resource="http://purl.org/dc/dcmitype/StillImage" />
        <dc:title></dc:title>
      </cc:Work>
    </rdf:RDF>
  </metadata>
  <g
     inkscape:label="Layer 1"
     inkscape:groupmode="layer"
     id="layer1"
     transform="translate(0,-540.36218)">
    <path
       style="fill:#000000;fill-opacity:1;stroke:none"
       d="M 168 40.46875 C 101.72584 40.46875 48 94.19459 48 160.46875 C 48 226.74292 168 455.84375 168 455.84375 C 168 455.84375 288 226.74292 288 160.46875 C 288 94.19459 234.27416 40.46875 168 40.46875 z M 168 75.0625 C 169.5533 75.0625 171.09102 75.109743 172.625 75.1875 C 174.15898 75.265257 175.67473 75.37762 177.1875 75.53125 C 179.45665 75.761695 181.72137 76.072893 183.9375 76.46875 C 186.15363 76.864607 188.34325 77.351343 190.5 77.90625 C 193.37566 78.646126 196.1806 79.521814 198.9375 80.53125 C 199.62672 80.783609 200.31879 81.043882 201 81.3125 C 203.04364 82.118353 205.06396 82.989562 207.03125 83.9375 C 208.34278 84.569459 209.63101 85.244748 210.90625 85.9375 C 213.45673 87.323003 215.91848 88.820135 218.3125 90.4375 C 220.70652 92.054865 223.02753 93.790853 225.25 95.625 C 226.92252 97.005289 228.52586 98.441923 230.09375 99.9375 C 247.28608 116.32891 258 139.43303 258 165.0625 C 258 192.24526 245.95702 216.62262 226.90625 233.125 C 225.81763 234.06799 224.69589 234.98432 223.5625 235.875 C 222.42911 236.76568 221.27002 237.63226 220.09375 238.46875 C 216.56493 240.97821 212.84961 243.23098 208.96875 245.21875 C 207.02832 246.21264 205.05015 247.14608 203.03125 248 C 201.01235 248.85392 198.966 249.63615 196.875 250.34375 C 195.481 250.81548 194.04869 251.25191 192.625 251.65625 C 189.77761 252.46493 186.89234 253.12844 183.9375 253.65625 C 182.46008 253.92015 180.97021 254.15289 179.46875 254.34375 C 177.96729 254.53461 176.46111 254.69657 174.9375 254.8125 C 172.65209 254.98639 170.32995 255.0625 168 255.0625 C 165.67005 255.0625 163.34791 254.98639 161.0625 254.8125 C 159.53889 254.69657 158.03271 254.53461 156.53125 254.34375 C 155.02979 254.15289 153.53992 253.92015 152.0625 253.65625 C 149.10766 253.12844 146.22239 252.46493 143.375 251.65625 C 141.95131 251.25191 140.519 250.81548 139.125 250.34375 C 137.034 249.63615 134.98765 248.85392 132.96875 248 C 130.94985 247.14608 128.97168 246.21264 127.03125 245.21875 C 123.15039 243.23098 119.43507 240.97821 115.90625 238.46875 C 114.72998 237.63226 113.57089 236.76568 112.4375 235.875 C 111.30411 234.98432 110.18237 234.06799 109.09375 233.125 C 107.45527 231.7057 105.90671 230.21995 104.375 228.6875 C 103.86604 228.17854 103.34046 227.67723 102.84375 227.15625 C 102.34168 226.62965 101.86431 226.10114 101.375 225.5625 C 100.89078 225.02974 100.409 224.51306 99.9375 223.96875 C 98.989092 222.87388 98.08299 221.76515 97.1875 220.625 C 96.747273 220.06482 96.302104 219.50828 95.875 218.9375 C 95.869979 218.93079 95.880019 218.91297 95.875 218.90625 C 95.448111 218.33543 95.00729 217.76868 94.59375 217.1875 C 94.588752 217.18047 94.598746 217.16328 94.59375 217.15625 C 94.180504 216.57514 93.774675 215.99748 93.375 215.40625 C 93.370122 215.39903 93.379876 215.38222 93.375 215.375 C 92.975536 214.78372 92.573166 214.19492 92.1875 213.59375 C 92.182753 213.58635 92.192245 213.56991 92.1875 213.5625 C 91.802043 212.96127 91.402682 212.36089 91.03125 211.75 C 91.026576 211.74231 91.035921 211.72644 91.03125 211.71875 C 90.65542 211.10022 90.298721 210.50319 89.9375 209.875 C 89.210443 208.61058 88.510184 207.33337 87.84375 206.03125 C 87.512455 205.38444 87.190979 204.74951 86.875 204.09375 C 86.55492 203.42948 86.24162 202.76697 85.9375 202.09375 C 85.637072 201.42927 85.34714 200.76672 85.0625 200.09375 C 84.489454 198.73892 83.97637 197.38778 83.46875 196 C 83.216391 195.31078 82.954615 194.6345 82.71875 193.9375 C 82.479693 193.23106 82.25312 192.52668 82.03125 191.8125 C 81.815081 191.11749 81.605912 190.42087 81.40625 189.71875 C 81.403507 189.70909 81.40899 189.69716 81.40625 189.6875 C 81.20408 188.97565 81.028719 188.28142 80.84375 187.5625 C 80.656255 186.83376 80.482077 186.11076 80.3125 185.375 C 80.147256 184.65916 79.991803 183.94101 79.84375 183.21875 C 79.841718 183.20882 79.845778 183.19743 79.84375 183.1875 C 79.69389 182.45515 79.538202 181.73871 79.40625 181 C 79.274298 180.26129 79.145059 179.52609 79.03125 178.78125 C 78.917441 178.03641 78.81418 177.28198 78.71875 176.53125 C 78.622025 175.77033 78.54635 175.01673 78.46875 174.25 C 78.391935 173.49362 78.307965 172.7618 78.25 172 C 78.191253 171.22792 78.164141 170.46491 78.125 169.6875 C 78.086646 168.93086 78.050802 168.16771 78.03125 167.40625 C 78.030989 167.39596 78.031507 167.38529 78.03125 167.375 C 78.011693 166.60306 78 165.83915 78 165.0625 C 78 162.72201 78.074543 160.42054 78.25 158.125 C 78.307965 157.3632 78.391935 156.63138 78.46875 155.875 C 78.546612 155.10831 78.621765 154.35463 78.71875 153.59375 C 78.812879 152.85325 78.919237 152.10977 79.03125 151.375 C 79.032808 151.3648 79.029688 151.35395 79.03125 151.34375 C 79.1435 150.60911 79.276348 149.88493 79.40625 149.15625 C 79.408039 149.14624 79.404458 149.13501 79.40625 149.125 C 79.538202 148.38629 79.69389 147.66985 79.84375 146.9375 C 80.145504 145.46287 80.470829 144.0099 80.84375 142.5625 C 81.028719 141.84358 81.20408 141.14935 81.40625 140.4375 C 81.813264 139.00439 82.243458 137.59052 82.71875 136.1875 C 82.954615 135.4905 83.216391 134.81422 83.46875 134.125 C 84.481411 131.35929 85.606253 128.66223 86.875 126.03125 C 87.190979 125.37549 87.512455 124.74056 87.84375 124.09375 C 88.179189 123.43885 88.524102 122.80173 88.875 122.15625 C 89.217043 121.52661 89.580979 120.9017 89.9375 120.28125 C 89.941992 120.27344 89.933006 120.25781 89.9375 120.25 C 90.298721 119.62181 90.65542 119.02478 91.03125 118.40625 C 93.290427 114.68814 95.80528 111.15166 98.5625 107.8125 C 99.015915 107.26309 99.471412 106.72585 99.9375 106.1875 C 99.942587 106.18163 99.932412 106.16212 99.9375 106.15625 C 100.409 105.61194 100.89078 105.09526 101.375 104.5625 C 102.82766 102.96422 104.34331 101.42763 105.90625 99.9375 C 107.47414 98.441923 109.07748 97.005289 110.75 95.625 C 112.97247 93.790853 115.29348 92.054865 117.6875 90.4375 C 120.08152 88.820135 122.54327 87.323003 125.09375 85.9375 C 126.36899 85.244748 127.65722 84.569459 128.96875 83.9375 C 130.93604 82.989562 132.95636 82.118353 135 81.3125 C 135.68121 81.043882 136.37328 80.783609 137.0625 80.53125 C 139.8194 79.521814 142.62434 78.646126 145.5 77.90625 C 147.65675 77.351343 149.84637 76.864607 152.0625 76.46875 C 154.27863 76.072893 156.54335 75.761695 158.8125 75.53125 C 160.32527 75.37762 161.84102 75.265257 163.375 75.1875 C 164.90898 75.109743 166.4467 75.0625 168 75.0625 z M 291.71875 106.75 C 296.96323 118.38808 300.62632 130.89452 302.40625 144 L 430 144 L 430 180 L 301.84375 180 C 298.87025 197.02584 292.34761 218.7106 283.6875 242.75 L 430 242.75 L 430 266.75 L 274.65625 266.75 C 271.32727 275.27162 267.80765 283.9596 264.15625 292.75 L 430 292.75 L 430 316.71875 L 254 316.71875 C 250.52263 324.74168 246.98098 332.77848 243.40625 340.75 L 430 340.75 L 430 364.75 L 232.46875 364.75 C 228.70809 372.90219 224.96809 380.91786 221.28125 388.71875 L 430 388.71875 L 430 412.75 L 209.8125 412.75 C 206.09968 420.43843 202.50647 427.77904 199.09375 434.71875 L 430 434.71875 L 430 458.75 L 187.15625 458.75 C 182.35906 468.31678 178.28158 476.36603 175.125 482.53125 L 455.78125 482.53125 L 455.78125 106.75 L 291.71875 106.75 z M 107.5625 120.78125 L 94.25 140.75 L 161.34375 185.5 L 166.75 189.09375 L 172.71875 186.53125 L 216.46875 167.8125 L 224.90625 164.1875 L 215.46875 142.125 L 207 145.75 L 169.25 161.90625 L 107.5625 120.78125 z M 115.78125 391.125 L 115.78125 482.53125 L 160.8125 482.53125 C 157.65593 476.36603 153.57844 468.31678 148.78125 458.75 L 142.625 458.75 L 142.625 446.375 C 134.66198 430.33703 125.51965 411.68356 115.78125 391.125 z "
       transform="translate(0,540.36218)"
       id="rect3759" />
  </g>
</svg>
